<svg width="250" height="252" viewBox="0 0 250 252" fill="none" xmlns="http://www.w3.org/2000/svg">
<g id="Group 32" opacity="0.8">
<circle id="Ellipse 1" cx="97.5" cy="99.5" r="20.5" stroke="#FBAF17" stroke-width="4"/>
<circle id="Ellipse 2" cx="152.5" cy="99.5" r="20.5" stroke="#FBAF17" stroke-width="4"/>
<circle id="Ellipse 5" cx="152.5" cy="48.5" r="15.5" stroke="#FBAF17" stroke-width="4"/>
<circle id="Ellipse 13" cx="153" cy="10" r="8" stroke="#FBAF17" stroke-width="4"/>
<circle id="Ellipse 15" cx="153" cy="242" r="8" stroke="#FBAF17" stroke-width="4"/>
<circle id="Ellipse 17" cx="10" cy="154" r="8" transform="rotate(90 10 154)" stroke="#FBAF17" stroke-width="4"/>
<circle id="Ellipse 19" cx="240" cy="155" r="8" transform="rotate(90 240 155)" stroke="#FBAF17" stroke-width="4"/>
<circle id="Ellipse 14" cx="98" cy="10" r="8" stroke="#FBAF17" stroke-width="4"/>
<circle id="Ellipse 16" cx="98" cy="242" r="8" stroke="#FBAF17" stroke-width="4"/>
<circle id="Ellipse 18" cx="10" cy="99" r="8" transform="rotate(90 10 99)" stroke="#FBAF17" stroke-width="4"/>
<circle id="Ellipse 20" cx="240" cy="99" r="8" transform="rotate(90 240 99)" stroke="#FBAF17" stroke-width="4"/>
<circle id="Ellipse 7" cx="152.5" cy="204.5" r="15.5" stroke="#FBAF17" stroke-width="4"/>
<circle id="Ellipse 9" cx="47.5" cy="99.5" r="15.5" transform="rotate(-90 47.5 99.5)" stroke="#FBAF17" stroke-width="4"/>
<circle id="Ellipse 11" cx="202.5" cy="99.5" r="15.5" transform="rotate(-90 202.5 99.5)" stroke="#FBAF17" stroke-width="4"/>
<circle id="Ellipse 21" cx="202.5" cy="48.5" r="15.5" transform="rotate(-90 202.5 48.5)" stroke="#FBAF17" stroke-width="4"/>
<circle id="Ellipse 22" cx="202.5" cy="204.5" r="15.5" transform="rotate(-90 202.5 204.5)" stroke="#FBAF17" stroke-width="4"/>
<circle id="Ellipse 23" cx="47.5" cy="204.5" r="15.5" transform="rotate(-90 47.5 204.5)" stroke="#FBAF17" stroke-width="4"/>
<circle id="Ellipse 24" cx="47.5" cy="48.5" r="15.5" transform="rotate(-90 47.5 48.5)" stroke="#FBAF17" stroke-width="4"/>
<circle id="Ellipse 6" cx="97.5" cy="48.5" r="15.5" stroke="#FBAF17" stroke-width="4"/>
<circle id="Ellipse 8" cx="97.5" cy="204.5" r="15.5" stroke="#FBAF17" stroke-width="4"/>
<circle id="Ellipse 10" cx="47.5" cy="154.5" r="15.5" transform="rotate(-90 47.5 154.5)" stroke="#FBAF17" stroke-width="4"/>
<circle id="Ellipse 12" cx="202.5" cy="154.5" r="15.5" transform="rotate(-90 202.5 154.5)" stroke="#FBAF17" stroke-width="4"/>
<circle id="Ellipse 3" cx="152.5" cy="154.5" r="20.5" stroke="#FBAF17" stroke-width="4"/>
<circle id="Ellipse 4" cx="97.5" cy="154.5" r="20.5" stroke="#FBAF17" stroke-width="4"/>
</g>
</svg>
